<svg xmlns="http://www.w3.org/2000/svg" width="900" height="560" viewBox="0 0 900 560">
<rect width="100%" height="100%" fill="white"/>
<text x="450.0" y="30" text-anchor="middle" font-family="Arial" font-size="20">copy: speedup vs. thread count</text>
<line x1="90" y1="480" x2="640" y2="480" stroke="black"/>
<line x1="90" y1="60" x2="90" y2="480" stroke="black"/>
<line x1="90.0" y1="60" x2="90.0" y2="480" stroke="#e6e6e6"/>
<text x="90.0" y="504" text-anchor="middle" font-family="Arial" font-size="12">0.76</text>
<line x1="90" y1="60.0" x2="640" y2="60.0" stroke="#e6e6e6"/>
<text x="80" y="64.0" text-anchor="end" font-family="Arial" font-size="12">2.08</text>
<line x1="200.0" y1="60" x2="200.0" y2="480" stroke="#e6e6e6"/>
<text x="200.0" y="504" text-anchor="middle" font-family="Arial" font-size="12">1.46</text>
<line x1="90" y1="144.0" x2="640" y2="144.0" stroke="#e6e6e6"/>
<text x="80" y="148.0" text-anchor="end" font-family="Arial" font-size="12">1.85</text>
<line x1="310.0" y1="60" x2="310.0" y2="480" stroke="#e6e6e6"/>
<text x="310.0" y="504" text-anchor="middle" font-family="Arial" font-size="12">2.15</text>
<line x1="90" y1="228.0" x2="640" y2="228.0" stroke="#e6e6e6"/>
<text x="80" y="232.0" text-anchor="end" font-family="Arial" font-size="12">1.62</text>
<line x1="420.0" y1="60" x2="420.0" y2="480" stroke="#e6e6e6"/>
<text x="420.0" y="504" text-anchor="middle" font-family="Arial" font-size="12">2.85</text>
<line x1="90" y1="312.0" x2="640" y2="312.0" stroke="#e6e6e6"/>
<text x="80" y="316.0" text-anchor="end" font-family="Arial" font-size="12">1.38</text>
<line x1="530.0" y1="60" x2="530.0" y2="480" stroke="#e6e6e6"/>
<text x="530.0" y="504" text-anchor="middle" font-family="Arial" font-size="12">3.54</text>
<line x1="90" y1="396.0" x2="640" y2="396.0" stroke="#e6e6e6"/>
<text x="80" y="400.0" text-anchor="end" font-family="Arial" font-size="12">1.15</text>
<line x1="640.0" y1="60" x2="640.0" y2="480" stroke="#e6e6e6"/>
<text x="640.0" y="504" text-anchor="middle" font-family="Arial" font-size="12">4.24</text>
<line x1="90" y1="480.0" x2="640" y2="480.0" stroke="#e6e6e6"/>
<text x="80" y="484.0" text-anchor="end" font-family="Arial" font-size="12">0.92</text>
<polyline points="127.9,451.0 286.0,108.4 602.1,89.0" fill="none" stroke="#1f77b4" stroke-width="2.5"/>
<circle cx="127.9" cy="451.0" r="4" fill="#1f77b4"/>
<circle cx="286.0" cy="108.4" r="4" fill="#1f77b4"/>
<circle cx="602.1" cy="89.0" r="4" fill="#1f77b4"/>
<line x1="675" y1="60" x2="699" y2="60" stroke="#1f77b4" stroke-width="3"/>
<text x="709" y="65" font-family="Arial" font-size="13">152.6 MiB array</text>
<text x="365.0" y="535" text-anchor="middle" font-family="Arial" font-size="15">Threads</text>
<text transform="translate(24 270.0) rotate(-90)" text-anchor="middle" font-family="Arial" font-size="15">Speedup over 1 thread</text>
</svg>
